<svg xmlns="http://www.w3.org/2000/svg" xmlns:xlink="http://www.w3.org/1999/xlink" width="375" viewBox="0 0 375 375" height="375" version="1.0"><defs><clipPath id="b"><path d="M 61.089844 34.914062 L 313.839844 34.914062 L 313.839844 287.664062 L 61.089844 287.664062 Z M 61.089844 34.914062"/></clipPath><clipPath id="e"><path d="M 0.359375 0.199219 L 248.519531 0.199219 L 248.519531 248 L 0.359375 248 Z M 0.359375 0.199219"/></clipPath><clipPath id="d"><path d="M0 0H249V249H0z"/></clipPath><filter x="0%" y="0%" width="100%" xmlns:xlink="http://www.w3.org/1999/xlink" xlink:type="simple" xlink:actuate="onLoad" height="100%" id="a" xlink:show="other"><feColorMatrix values="0 0 0 0 1 0 0 0 0 1 0 0 0 0 1 0 0 0 1 0" color-interpolation-filters="sRGB"/></filter><mask id="c"><g filter="url(#a)"><path fill-opacity=".047" d="M-37.5 -37.5H412.5V412.5H-37.5z"/></g></mask></defs><g clip-path="url(#b)"><path fill="#1C2128" d="M 187.464844 34.914062 C 117.671875 34.914062 61.089844 91.496094 61.089844 161.289062 C 61.089844 231.085938 117.671875 287.664062 187.464844 287.664062 C 257.261719 287.664062 313.839844 231.085938 313.839844 161.289062 C 313.839844 91.496094 257.261719 34.914062 187.464844 34.914062 Z M 187.464844 166.535156 C 184.570312 166.535156 182.222656 164.1875 182.222656 161.289062 C 182.222656 158.394531 184.570312 156.046875 187.464844 156.046875 C 190.363281 156.046875 192.710938 158.394531 192.710938 161.289062 C 192.710938 164.1875 190.363281 166.535156 187.464844 166.535156 Z M 187.464844 166.535156"/></g><g mask="url(#c)"><g><g clip-path="url(#d)" transform="translate(63 37)"><g clip-path="url(#e)"><path fill="#FFF" d="M 124.464844 0.6875 C 56.203125 0.6875 0.863281 56.027344 0.863281 124.289062 C 0.863281 192.554688 56.203125 247.894531 124.464844 247.894531 C 192.730469 247.894531 248.070312 192.554688 248.070312 124.289062 C 248.070312 56.027344 192.730469 0.6875 124.464844 0.6875 Z M 124.464844 129.535156 C 121.570312 129.535156 119.222656 127.1875 119.222656 124.289062 C 119.222656 121.394531 121.570312 119.046875 124.464844 119.046875 C 127.363281 119.046875 129.710938 121.394531 129.710938 124.289062 C 129.710938 127.1875 127.363281 129.535156 124.464844 129.535156 Z M 124.464844 129.535156"/></g></g></g></g><path fill="#1C2128" d="M 187.464844 97.453125 C 152.207031 97.453125 123.628906 126.03125 123.628906 161.289062 C 123.628906 196.546875 152.207031 225.128906 187.464844 225.128906 C 222.722656 225.128906 251.304688 196.546875 251.304688 161.289062 C 251.304688 126.035156 222.722656 97.453125 187.464844 97.453125 Z M 187.464844 166.535156 C 184.570312 166.535156 182.222656 164.1875 182.222656 161.289062 C 182.222656 158.394531 184.570312 156.046875 187.464844 156.046875 C 190.363281 156.046875 192.710938 158.394531 192.710938 161.289062 C 192.710938 164.1875 190.363281 166.535156 187.464844 166.535156 Z M 187.464844 166.535156"/><path fill="#1F91AD" d="M 187.464844 122.472656 C 166.027344 122.472656 148.648438 139.851562 148.648438 161.289062 C 148.648438 182.730469 166.027344 200.109375 187.464844 200.109375 C 208.90625 200.109375 226.285156 182.730469 226.285156 161.289062 C 226.285156 139.851562 208.90625 122.472656 187.464844 122.472656 Z M 187.464844 166.535156 C 184.570312 166.535156 182.222656 164.1875 182.222656 161.289062 C 182.222656 158.394531 184.570312 156.046875 187.464844 156.046875 C 190.363281 156.046875 192.710938 158.394531 192.710938 161.289062 C 192.710938 164.1875 190.363281 166.535156 187.464844 166.535156 Z M 187.464844 166.535156"/><path fill="#FFF" d="M 187.464844 195.039062 C 168.855469 195.039062 153.714844 179.902344 153.714844 161.289062 C 153.714844 142.679688 168.855469 127.539062 187.464844 127.539062 C 206.078125 127.539062 221.214844 142.679688 221.214844 161.289062 C 221.214844 179.902344 206.074219 195.039062 187.464844 195.039062 Z M 187.464844 128.492188 C 169.378906 128.492188 154.667969 143.203125 154.667969 161.289062 C 154.667969 179.375 169.378906 194.089844 187.464844 194.089844 C 205.550781 194.089844 220.265625 179.375 220.265625 161.289062 C 220.265625 143.207031 205.550781 128.492188 187.464844 128.492188 Z M 187.464844 128.492188"/><path fill="#1C2128" d="M 187.464844 265.691406 C 159.582031 265.691406 133.363281 254.832031 113.644531 235.113281 C 93.925781 215.394531 83.066406 189.175781 83.066406 161.289062 C 83.066406 133.40625 93.925781 107.1875 113.644531 87.46875 C 133.363281 67.75 159.582031 56.890625 187.464844 56.890625 C 215.351562 56.890625 241.570312 67.75 261.289062 87.46875 C 281.003906 107.1875 291.863281 133.40625 291.863281 161.289062 C 291.863281 189.175781 281.003906 215.394531 261.289062 235.113281 C 241.570312 254.828125 215.351562 265.691406 187.464844 265.691406 Z M 187.464844 59.199219 C 160.195312 59.199219 134.558594 69.820312 115.277344 89.101562 C 95.992188 108.382812 85.375 134.019531 85.375 161.289062 C 85.375 188.558594 95.992188 214.199219 115.277344 233.480469 C 134.558594 252.761719 160.195312 263.382812 187.464844 263.382812 C 214.734375 263.382812 240.375 252.761719 259.65625 233.480469 C 278.9375 214.199219 289.558594 188.558594 289.558594 161.289062 C 289.558594 134.019531 278.9375 108.382812 259.65625 89.101562 C 240.375 69.820312 214.734375 59.199219 187.464844 59.199219 Z M 187.464844 59.199219"/><path fill="#1C2128" d="M 187.464844 272.53125 C 157.753906 272.53125 129.816406 260.960938 108.808594 239.949219 C 87.796875 218.9375 76.226562 191.003906 76.226562 161.289062 C 76.226562 131.578125 87.796875 103.640625 108.808594 82.632812 C 129.816406 61.621094 157.753906 50.050781 187.464844 50.050781 C 217.179688 50.050781 245.113281 61.621094 266.125 82.632812 C 287.136719 103.640625 298.707031 131.578125 298.707031 161.289062 C 298.707031 191.003906 287.136719 218.941406 266.125 239.949219 C 245.113281 260.960938 217.179688 272.53125 187.464844 272.53125 Z M 187.464844 52.355469 C 158.367188 52.355469 131.011719 63.6875 110.4375 84.261719 C 89.863281 104.835938 78.53125 132.195312 78.53125 161.289062 C 78.53125 190.386719 89.863281 217.742188 110.4375 238.316406 C 131.011719 258.894531 158.367188 270.222656 187.464844 270.222656 C 216.5625 270.222656 243.917969 258.894531 264.496094 238.320312 C 285.070312 217.742188 296.398438 190.386719 296.398438 161.289062 C 296.398438 132.191406 285.066406 104.835938 264.496094 84.261719 C 243.917969 63.6875 216.5625 52.355469 187.464844 52.355469 Z M 187.464844 52.355469"/><path fill="#1C2128" d="M 187.464844 242.234375 C 142.835938 242.234375 106.523438 205.921875 106.523438 161.289062 C 106.523438 116.660156 142.835938 80.347656 187.464844 80.347656 C 232.097656 80.347656 268.40625 116.660156 268.40625 161.289062 C 268.40625 205.921875 232.097656 242.234375 187.464844 242.234375 Z M 187.464844 83.199219 C 144.40625 83.199219 109.375 118.230469 109.375 161.289062 C 109.375 204.351562 144.40625 239.382812 187.464844 239.382812 C 230.527344 239.382812 265.558594 204.351562 265.558594 161.289062 C 265.558594 118.230469 230.527344 83.199219 187.464844 83.199219 Z M 187.464844 83.199219"/><path fill="#1C2128" d="M 187.464844 232.574219 C 148.160156 232.574219 116.183594 200.597656 116.183594 161.289062 C 116.183594 121.984375 148.160156 90.007812 187.464844 90.007812 C 226.769531 90.007812 258.746094 121.984375 258.746094 161.289062 C 258.746094 200.59375 226.769531 232.574219 187.464844 232.574219 Z M 187.464844 94.761719 C 150.78125 94.761719 120.933594 124.605469 120.933594 161.289062 C 120.933594 197.976562 150.78125 227.824219 187.464844 227.824219 C 224.152344 227.824219 253.996094 197.976562 253.996094 161.289062 C 253.996094 124.605469 224.152344 94.761719 187.464844 94.761719 Z M 187.464844 94.761719"/><path fill="#1C2128" d="M 187.464844 251.730469 C 137.597656 251.730469 97.027344 211.160156 97.027344 161.289062 C 97.027344 111.421875 137.597656 70.851562 187.464844 70.851562 C 237.335938 70.851562 277.902344 111.421875 277.902344 161.289062 C 277.902344 211.160156 237.335938 251.730469 187.464844 251.730469 Z M 187.464844 73.007812 C 138.785156 73.007812 99.183594 112.609375 99.183594 161.289062 C 99.183594 209.972656 138.785156 249.574219 187.464844 249.574219 C 236.144531 249.574219 275.75 209.972656 275.75 161.289062 C 275.75 112.609375 236.144531 73.007812 187.464844 73.007812 Z M 187.464844 73.007812"/><g fill="#FCFCFC"><g><g><path d="M 12.953125 -2.890625 C 14.234375 -2.890625 15.421875 -3.195312 16.515625 -3.8125 C 17.609375 -4.4375 18.535156 -5.257812 19.296875 -6.28125 L 21.71875 -3.953125 C 20.65625 -2.691406 19.363281 -1.660156 17.84375 -0.859375 C 16.332031 -0.0664062 14.703125 0.328125 12.953125 0.328125 C 11.359375 0.328125 9.851562 0.0078125 8.4375 -0.625 C 7.019531 -1.269531 5.789062 -2.140625 4.75 -3.234375 C 3.707031 -4.328125 2.878906 -5.609375 2.265625 -7.078125 C 1.660156 -8.554688 1.359375 -10.113281 1.359375 -11.75 C 1.359375 -13.414062 1.660156 -14.976562 2.265625 -16.4375 C 2.878906 -17.894531 3.707031 -19.171875 4.75 -20.265625 C 5.789062 -21.367188 7.019531 -22.238281 8.4375 -22.875 C 9.851562 -23.519531 11.359375 -23.84375 12.953125 -23.84375 C 14.429688 -23.84375 15.828125 -23.546875 17.140625 -22.953125 C 18.460938 -22.367188 19.644531 -21.601562 20.6875 -20.65625 L 18.625 -18.03125 C 17.894531 -18.800781 17.039062 -19.4375 16.0625 -19.9375 C 15.09375 -20.4375 14.054688 -20.6875 12.953125 -20.6875 C 11.816406 -20.6875 10.753906 -20.445312 9.765625 -19.96875 C 8.785156 -19.5 7.929688 -18.851562 7.203125 -18.03125 C 6.472656 -17.207031 5.890625 -16.257812 5.453125 -15.1875 C 5.023438 -14.113281 4.8125 -12.96875 4.8125 -11.75 C 4.8125 -10.53125 5.023438 -9.382812 5.453125 -8.3125 C 5.890625 -7.238281 6.472656 -6.296875 7.203125 -5.484375 C 7.929688 -4.679688 8.785156 -4.046875 9.765625 -3.578125 C 10.753906 -3.117188 11.816406 -2.890625 12.953125 -2.890625 Z M 12.953125 -2.890625" transform="translate(69.058 330.34)"/></g></g></g><g fill="#FCFCFC"><g><g><path d="M 8.828125 0.40625 C 7.722656 0.40625 6.6875 0.191406 5.71875 -0.234375 C 4.757812 -0.671875 3.921875 -1.265625 3.203125 -2.015625 C 2.484375 -2.773438 1.910156 -3.660156 1.484375 -4.671875 C 1.066406 -5.691406 0.859375 -6.78125 0.859375 -7.9375 C 0.859375 -9.082031 1.066406 -10.164062 1.484375 -11.1875 C 1.910156 -12.207031 2.484375 -13.09375 3.203125 -13.84375 C 3.921875 -14.59375 4.757812 -15.179688 5.71875 -15.609375 C 6.6875 -16.046875 7.722656 -16.265625 8.828125 -16.265625 C 9.910156 -16.265625 10.9375 -16.046875 11.90625 -15.609375 C 12.882812 -15.179688 13.734375 -14.59375 14.453125 -13.84375 C 15.179688 -13.09375 15.753906 -12.207031 16.171875 -11.1875 C 16.585938 -10.164062 16.796875 -9.082031 16.796875 -7.9375 C 16.796875 -6.78125 16.585938 -5.691406 16.171875 -4.671875 C 15.753906 -3.660156 15.179688 -2.773438 14.453125 -2.015625 C 13.734375 -1.265625 12.882812 -0.671875 11.90625 -0.234375 C 10.9375 0.191406 9.910156 0.40625 8.828125 0.40625 Z M 8.828125 -13.375 C 8.191406 -13.375 7.582031 -13.226562 7 -12.9375 C 6.425781 -12.65625 5.921875 -12.269531 5.484375 -11.78125 C 5.054688 -11.300781 4.722656 -10.726562 4.484375 -10.0625 C 4.242188 -9.394531 4.125 -8.6875 4.125 -7.9375 C 4.125 -7.1875 4.242188 -6.476562 4.484375 -5.8125 C 4.722656 -5.144531 5.054688 -4.5625 5.484375 -4.0625 C 5.921875 -3.570312 6.425781 -3.179688 7 -2.890625 C 7.582031 -2.597656 8.191406 -2.453125 8.828125 -2.453125 C 9.472656 -2.453125 10.082031 -2.597656 10.65625 -2.890625 C 11.226562 -3.179688 11.722656 -3.570312 12.140625 -4.0625 C 12.566406 -4.5625 12.898438 -5.144531 13.140625 -5.8125 C 13.390625 -6.476562 13.515625 -7.1875 13.515625 -7.9375 C 13.515625 -8.6875 13.390625 -9.394531 13.140625 -10.0625 C 12.898438 -10.726562 12.566406 -11.300781 12.140625 -11.78125 C 11.722656 -12.269531 11.226562 -12.65625 10.65625 -12.9375 C 10.082031 -13.226562 9.472656 -13.375 8.828125 -13.375 Z M 8.828125 -13.375" transform="translate(93.493 330.34)"/></g></g></g><g fill="#FCFCFC"><g><g><path d="M 8.828125 0.40625 C 7.722656 0.40625 6.6875 0.191406 5.71875 -0.234375 C 4.757812 -0.671875 3.921875 -1.265625 3.203125 -2.015625 C 2.484375 -2.773438 1.910156 -3.660156 1.484375 -4.671875 C 1.066406 -5.691406 0.859375 -6.78125 0.859375 -7.9375 C 0.859375 -9.082031 1.066406 -10.164062 1.484375 -11.1875 C 1.910156 -12.207031 2.484375 -13.09375 3.203125 -13.84375 C 3.921875 -14.59375 4.757812 -15.179688 5.71875 -15.609375 C 6.6875 -16.046875 7.722656 -16.265625 8.828125 -16.265625 C 9.910156 -16.265625 10.9375 -16.046875 11.90625 -15.609375 C 12.882812 -15.179688 13.734375 -14.59375 14.453125 -13.84375 C 15.179688 -13.09375 15.753906 -12.207031 16.171875 -11.1875 C 16.585938 -10.164062 16.796875 -9.082031 16.796875 -7.9375 C 16.796875 -6.78125 16.585938 -5.691406 16.171875 -4.671875 C 15.753906 -3.660156 15.179688 -2.773438 14.453125 -2.015625 C 13.734375 -1.265625 12.882812 -0.671875 11.90625 -0.234375 C 10.9375 0.191406 9.910156 0.40625 8.828125 0.40625 Z M 8.828125 -13.375 C 8.191406 -13.375 7.582031 -13.226562 7 -12.9375 C 6.425781 -12.65625 5.921875 -12.269531 5.484375 -11.78125 C 5.054688 -11.300781 4.722656 -10.726562 4.484375 -10.0625 C 4.242188 -9.394531 4.125 -8.6875 4.125 -7.9375 C 4.125 -7.1875 4.242188 -6.476562 4.484375 -5.8125 C 4.722656 -5.144531 5.054688 -4.5625 5.484375 -4.0625 C 5.921875 -3.570312 6.425781 -3.179688 7 -2.890625 C 7.582031 -2.597656 8.191406 -2.453125 8.828125 -2.453125 C 9.472656 -2.453125 10.082031 -2.597656 10.65625 -2.890625 C 11.226562 -3.179688 11.722656 -3.570312 12.140625 -4.0625 C 12.566406 -4.5625 12.898438 -5.144531 13.140625 -5.8125 C 13.390625 -6.476562 13.515625 -7.1875 13.515625 -7.9375 C 13.515625 -8.6875 13.390625 -9.394531 13.140625 -10.0625 C 12.898438 -10.726562 12.566406 -11.300781 12.140625 -11.78125 C 11.722656 -12.269531 11.226562 -12.65625 10.65625 -12.9375 C 10.082031 -13.226562 9.472656 -13.375 8.828125 -13.375 Z M 8.828125 -13.375" transform="translate(112.683 330.34)"/></g></g></g><g fill="#FCFCFC"><g><g><path d="M 5.25 -24.234375 L 5.25 0 L 2.03125 0 L 2.03125 -24.234375 Z M 5.25 -24.234375" transform="translate(131.872 330.34)"/></g></g></g><g fill="#FCFCFC"><g><g><path d="M 18.53125 -6.578125 C 18.53125 -5.671875 18.359375 -4.816406 18.015625 -4.015625 C 17.671875 -3.222656 17.195312 -2.523438 16.59375 -1.921875 C 16 -1.328125 15.296875 -0.859375 14.484375 -0.515625 C 13.679688 -0.171875 12.828125 0 11.921875 0 L 1.859375 0 L 1.859375 -23.546875 L 11.0625 -23.546875 C 11.851562 -23.546875 12.601562 -23.390625 13.3125 -23.078125 C 14.019531 -22.765625 14.640625 -22.34375 15.171875 -21.8125 C 15.703125 -21.28125 16.125 -20.65625 16.4375 -19.9375 C 16.75 -19.21875 16.90625 -18.445312 16.90625 -17.625 C 16.90625 -16.613281 16.738281 -15.691406 16.40625 -14.859375 C 16.070312 -14.023438 15.53125 -13.320312 14.78125 -12.75 C 16.039062 -12.28125 16.976562 -11.488281 17.59375 -10.375 C 18.21875 -9.257812 18.53125 -7.992188 18.53125 -6.578125 Z M 5.3125 -14.015625 C 6.195312 -13.992188 7.015625 -13.984375 7.765625 -13.984375 L 11.09375 -13.984375 C 11.9375 -13.984375 12.644531 -14.296875 13.21875 -14.921875 C 13.789062 -15.554688 14.078125 -16.316406 14.078125 -17.203125 C 14.078125 -18.109375 13.789062 -18.867188 13.21875 -19.484375 C 12.644531 -20.109375 11.9375 -20.421875 11.09375 -20.421875 L 5.3125 -20.421875 Z M 5.3125 -3.21875 C 5.46875 -3.195312 5.8125 -3.1875 6.34375 -3.1875 L 11.921875 -3.1875 C 12.390625 -3.1875 12.828125 -3.285156 13.234375 -3.484375 C 13.640625 -3.679688 14 -3.953125 14.3125 -4.296875 C 14.625 -4.640625 14.867188 -5.039062 15.046875 -5.5 C 15.222656 -5.96875 15.3125 -6.46875 15.3125 -7 C 15.3125 -7.53125 15.222656 -8.023438 15.046875 -8.484375 C 14.867188 -8.941406 14.625 -9.335938 14.3125 -9.671875 C 14 -10.015625 13.640625 -10.285156 13.234375 -10.484375 C 12.828125 -10.691406 12.390625 -10.796875 11.921875 -10.796875 L 5.3125 -10.796875 Z M 5.3125 -3.21875" transform="translate(150.896 330.34)"/></g></g></g><g fill="#FCFCFC"><g><g><path d="M 5.25 -24.234375 L 5.25 0 L 2.03125 0 L 2.03125 -24.234375 Z M 5.25 -24.234375" transform="translate(172.476 330.34)"/></g></g></g><g fill="#FCFCFC"><g><g><path d="M 5.21875 0 L 2 0 L 2 -15.90625 L 5.1875 -15.90625 Z M 3.59375 -19.359375 C 3.007812 -19.359375 2.519531 -19.5625 2.125 -19.96875 C 1.726562 -20.382812 1.53125 -20.878906 1.53125 -21.453125 C 1.53125 -22.023438 1.726562 -22.507812 2.125 -22.90625 C 2.519531 -23.3125 3.007812 -23.515625 3.59375 -23.515625 C 4.164062 -23.515625 4.648438 -23.3125 5.046875 -22.90625 C 5.441406 -22.507812 5.640625 -22.023438 5.640625 -21.453125 C 5.640625 -20.878906 5.441406 -20.382812 5.046875 -19.96875 C 4.648438 -19.5625 4.164062 -19.359375 3.59375 -19.359375 Z M 3.59375 -19.359375" transform="translate(181.175 330.34)"/></g></g></g><g fill="#FCFCFC"><g><g><path d="M 5.015625 0 L 1.796875 0 L 1.796875 -15.90625 L 4.34375 -15.90625 L 5.015625 -14.515625 C 5.546875 -15.023438 6.1875 -15.441406 6.9375 -15.765625 C 7.6875 -16.097656 8.503906 -16.265625 9.390625 -16.265625 C 9.972656 -16.265625 10.628906 -16.175781 11.359375 -16 C 12.085938 -15.820312 12.765625 -15.488281 13.390625 -15 C 14.023438 -14.519531 14.554688 -13.847656 14.984375 -12.984375 C 15.421875 -12.117188 15.640625 -11 15.640625 -9.625 L 15.640625 0 L 12.578125 0 L 12.578125 -9.65625 C 12.578125 -10.34375 12.472656 -10.925781 12.265625 -11.40625 C 12.054688 -11.882812 11.78125 -12.265625 11.4375 -12.546875 C 11.09375 -12.835938 10.703125 -13.039062 10.265625 -13.15625 C 9.835938 -13.28125 9.394531 -13.34375 8.9375 -13.34375 C 8.582031 -13.34375 8.175781 -13.273438 7.71875 -13.140625 C 7.269531 -13.015625 6.84375 -12.800781 6.4375 -12.5 C 6.039062 -12.195312 5.703125 -11.816406 5.421875 -11.359375 C 5.148438 -10.910156 5.015625 -10.359375 5.015625 -9.703125 Z M 5.015625 0" transform="translate(189.807 330.34)"/></g></g></g><g fill="#FCFCFC"><g><g><path d="M 17.0625 -24.234375 L 17.0625 0 L 14.515625 0 L 13.84375 -1.65625 C 13.207031 -1.019531 12.476562 -0.515625 11.65625 -0.140625 C 10.832031 0.222656 9.890625 0.40625 8.828125 0.40625 C 7.722656 0.40625 6.707031 0.191406 5.78125 -0.234375 C 4.851562 -0.671875 4.046875 -1.265625 3.359375 -2.015625 C 2.671875 -2.773438 2.128906 -3.660156 1.734375 -4.671875 C 1.347656 -5.691406 1.15625 -6.78125 1.15625 -7.9375 C 1.15625 -9.082031 1.347656 -10.164062 1.734375 -11.1875 C 2.128906 -12.207031 2.671875 -13.09375 3.359375 -13.84375 C 4.046875 -14.59375 4.851562 -15.179688 5.78125 -15.609375 C 6.707031 -16.046875 7.722656 -16.265625 8.828125 -16.265625 C 9.941406 -16.265625 10.90625 -16.082031 11.71875 -15.71875 C 12.539062 -15.351562 13.25 -14.835938 13.84375 -14.171875 L 13.84375 -24.234375 Z M 9.09375 -2.453125 C 9.757812 -2.453125 10.375 -2.5625 10.9375 -2.78125 C 11.5 -3.007812 11.992188 -3.347656 12.421875 -3.796875 C 12.859375 -4.253906 13.195312 -4.828125 13.4375 -5.515625 C 13.6875 -6.203125 13.8125 -7.007812 13.8125 -7.9375 C 13.8125 -8.9375 13.6875 -9.773438 13.4375 -10.453125 C 13.195312 -11.140625 12.859375 -11.695312 12.421875 -12.125 C 11.992188 -12.5625 11.5 -12.875 10.9375 -13.0625 C 10.375 -13.25 9.757812 -13.34375 9.09375 -13.34375 C 8.457031 -13.34375 7.847656 -13.203125 7.265625 -12.921875 C 6.691406 -12.648438 6.191406 -12.269531 5.765625 -11.78125 C 5.347656 -11.300781 5.019531 -10.726562 4.78125 -10.0625 C 4.539062 -9.394531 4.421875 -8.6875 4.421875 -7.9375 C 4.421875 -7.1875 4.539062 -6.476562 4.78125 -5.8125 C 5.019531 -5.144531 5.347656 -4.5625 5.765625 -4.0625 C 6.191406 -3.570312 6.691406 -3.179688 7.265625 -2.890625 C 7.847656 -2.597656 8.457031 -2.453125 9.09375 -2.453125 Z M 9.09375 -2.453125" transform="translate(209.195 330.34)"/></g></g></g><g fill="#FCFCFC"><g><g><path d="M 6.546875 -20.421875 L 0.171875 -20.421875 L 0.171875 -23.546875 L 16.40625 -23.546875 L 16.40625 -20.421875 L 10 -20.421875 L 10 0 L 6.546875 0 Z M 6.546875 -20.421875" transform="translate(240.403 330.34)"/></g></g></g><g fill="#FCFCFC"><g><g><path d="M 9.390625 0.40625 C 8.242188 0.40625 7.164062 0.191406 6.15625 -0.234375 C 5.15625 -0.671875 4.273438 -1.265625 3.515625 -2.015625 C 2.765625 -2.773438 2.171875 -3.660156 1.734375 -4.671875 C 1.304688 -5.691406 1.09375 -6.78125 1.09375 -7.9375 C 1.09375 -9.082031 1.296875 -10.164062 1.703125 -11.1875 C 2.117188 -12.207031 2.675781 -13.09375 3.375 -13.84375 C 4.070312 -14.59375 4.882812 -15.179688 5.8125 -15.609375 C 6.738281 -16.046875 7.734375 -16.265625 8.796875 -16.265625 C 9.878906 -16.265625 10.878906 -16.078125 11.796875 -15.703125 C 12.722656 -15.328125 13.519531 -14.738281 14.1875 -13.9375 C 14.863281 -13.144531 15.390625 -12.132812 15.765625 -10.90625 C 16.148438 -9.675781 16.34375 -8.210938 16.34375 -6.515625 L 4.515625 -6.515625 C 4.671875 -5.929688 4.914062 -5.390625 5.25 -4.890625 C 5.582031 -4.398438 5.972656 -3.972656 6.421875 -3.609375 C 6.878906 -3.242188 7.390625 -2.957031 7.953125 -2.75 C 8.515625 -2.550781 9.109375 -2.453125 9.734375 -2.453125 C 10.566406 -2.453125 11.34375 -2.609375 12.0625 -2.921875 C 12.789062 -3.234375 13.40625 -3.644531 13.90625 -4.15625 L 15.90625 -2.15625 C 15.132812 -1.382812 14.1875 -0.765625 13.0625 -0.296875 C 11.945312 0.171875 10.722656 0.40625 9.390625 0.40625 Z M 8.796875 -13.34375 C 8.285156 -13.34375 7.800781 -13.242188 7.34375 -13.046875 C 6.894531 -12.847656 6.476562 -12.570312 6.09375 -12.21875 C 5.707031 -11.863281 5.375 -11.441406 5.09375 -10.953125 C 4.820312 -10.472656 4.617188 -9.941406 4.484375 -9.359375 L 12.890625 -9.359375 C 12.835938 -9.890625 12.710938 -10.398438 12.515625 -10.890625 C 12.316406 -11.378906 12.039062 -11.804688 11.6875 -12.171875 C 11.332031 -12.535156 10.914062 -12.820312 10.4375 -13.03125 C 9.96875 -13.238281 9.421875 -13.34375 8.796875 -13.34375 Z M 8.796875 -13.34375" transform="translate(259.394 330.34)"/></g></g></g><g fill="#FCFCFC"><g><g><path d="M 9.265625 -3.328125 C 9.460938 -3.503906 9.640625 -3.703125 9.796875 -3.921875 C 9.953125 -4.140625 10.03125 -4.394531 10.03125 -4.6875 C 10.03125 -5.039062 9.898438 -5.335938 9.640625 -5.578125 C 9.390625 -5.816406 9.082031 -6.019531 8.71875 -6.1875 C 8.351562 -6.351562 7.96875 -6.476562 7.5625 -6.5625 C 7.164062 -6.65625 6.835938 -6.738281 6.578125 -6.8125 C 5.847656 -6.988281 5.160156 -7.203125 4.515625 -7.453125 C 3.867188 -7.710938 3.304688 -8.023438 2.828125 -8.390625 C 2.359375 -8.753906 1.984375 -9.179688 1.703125 -9.671875 C 1.429688 -10.171875 1.296875 -10.765625 1.296875 -11.453125 C 1.296875 -12.097656 1.445312 -12.703125 1.75 -13.265625 C 2.0625 -13.828125 2.476562 -14.320312 3 -14.75 C 3.519531 -15.1875 4.128906 -15.53125 4.828125 -15.78125 C 5.523438 -16.039062 6.265625 -16.171875 7.046875 -16.171875 C 7.722656 -16.171875 8.367188 -16.070312 8.984375 -15.875 C 9.609375 -15.675781 10.171875 -15.40625 10.671875 -15.0625 C 11.171875 -14.71875 11.59375 -14.300781 11.9375 -13.8125 C 12.28125 -13.320312 12.507812 -12.78125 12.625 -12.1875 L 9.734375 -11.484375 C 9.597656 -12.015625 9.304688 -12.457031 8.859375 -12.8125 C 8.421875 -13.164062 7.816406 -13.34375 7.046875 -13.34375 C 6.773438 -13.34375 6.492188 -13.300781 6.203125 -13.21875 C 5.921875 -13.144531 5.65625 -13.03125 5.40625 -12.875 C 5.164062 -12.726562 4.960938 -12.539062 4.796875 -12.3125 C 4.628906 -12.09375 4.546875 -11.84375 4.546875 -11.5625 C 4.546875 -11.25 4.640625 -10.976562 4.828125 -10.75 C 5.015625 -10.53125 5.238281 -10.347656 5.5 -10.203125 C 5.769531 -10.066406 6.0625 -9.953125 6.375 -9.859375 C 6.6875 -9.773438 6.972656 -9.695312 7.234375 -9.625 C 8.410156 -9.34375 9.382812 -9.035156 10.15625 -8.703125 C 10.9375 -8.367188 11.554688 -8 12.015625 -7.59375 C 12.484375 -7.195312 12.8125 -6.757812 13 -6.28125 C 13.1875 -5.8125 13.28125 -5.28125 13.28125 -4.6875 C 13.28125 -3.976562 13.117188 -3.3125 12.796875 -2.6875 C 12.472656 -2.070312 12.03125 -1.535156 11.46875 -1.078125 C 10.90625 -0.628906 10.226562 -0.273438 9.4375 -0.015625 C 8.65625 0.234375 7.8125 0.359375 6.90625 0.359375 C 5.53125 0.359375 4.304688 0.0234375 3.234375 -0.640625 C 2.160156 -1.316406 1.4375 -2.222656 1.0625 -3.359375 L 3.78125 -4.578125 C 4.132812 -3.804688 4.585938 -3.28125 5.140625 -3 C 5.703125 -2.726562 6.335938 -2.59375 7.046875 -2.59375 C 7.929688 -2.59375 8.671875 -2.835938 9.265625 -3.328125 Z M 9.265625 -3.328125" transform="translate(278.65 330.34)"/></g></g></g><g fill="#FCFCFC"><g><g><path d="M 10.5 -0.03125 C 9.582031 0.28125 8.679688 0.46875 7.796875 0.53125 C 6.910156 0.59375 6.113281 0.460938 5.40625 0.140625 C 4.695312 -0.171875 4.117188 -0.726562 3.671875 -1.53125 C 3.234375 -2.34375 3.015625 -3.484375 3.015625 -4.953125 L 3.015625 -13.015625 L 0.703125 -13.015625 L 0.703125 -15.234375 L 3.015625 -15.90625 L 3.015625 -20.15625 L 6.25 -20.15625 L 6.25 -15.90625 L 10.5625 -15.90625 L 10.5625 -13.015625 L 6.25 -13.015625 L 6.25 -4.453125 C 6.25 -3.921875 6.304688 -3.5 6.421875 -3.1875 C 6.546875 -2.875 6.75 -2.640625 7.03125 -2.484375 C 7.320312 -2.335938 7.695312 -2.265625 8.15625 -2.265625 C 8.625 -2.265625 9.191406 -2.304688 9.859375 -2.390625 Z M 10.5 -0.03125" transform="translate(294.586 330.34)"/></g></g></g></svg>